<svg xmlns="http://www.w3.org/2000/svg" viewBox="0 0 1000 1000" width="1000" height="1000" role="img" aria-label="FRONI"><rect width="1000" height="1000" fill="#131114"/><path d="M46.06-610.26L44.29-620L457.91-620L457.91-492.46L448.17-494.23Q448.17-556.23 381.74-577.93Q315.31-599.63 195.74-599.63L195.74-320.63Q246.23-322.40 275.90-327.27Q305.57-332.14 319.74-342.77Q333.91-353.40 337.90-371.56Q341.89-389.71 341.89-417.17L352.51-418.94L352.51-203.71L341.89-205.49Q341.89-233.83 337.90-251.99Q333.91-270.14 319.74-280.33Q305.57-290.51 275.90-295.39Q246.23-300.26 195.74-301.14L195.74-200.17Q195.74-135.51 198.40-97.43Q201.06-59.34 212.13-40.74Q223.20-22.14 245.79-16.39Q268.37-10.63 308.23-10.63L310 0L44.29 0L46.06-10.63Q76.17-10.63 93.44-16.39Q110.71-22.14 119.13-40.74Q127.54-59.34 130.20-97.43Q132.86-135.51 132.86-200.17L132.86-419.83Q132.86-484.49 130.20-522.57Q127.54-560.66 119.13-579.70Q110.71-598.74 93.44-604.50Q76.17-610.26 46.06-610.26" fill="#C9A227" transform="translate(248.9,810)"/></svg>